<svg id="visual" viewBox="0 0 900 600" width="900" height="600" xmlns="http://www.w3.org/2000/svg" xmlns:xlink="http://www.w3.org/1999/xlink" version="1.1"><rect x="0" y="0" width="900" height="600" fill="#1d1d1d"></rect><defs><linearGradient id="grad1_0" x1="33.3%" y1="0%" x2="100%" y2="100%"><stop offset="20%" stop-color="#1d1d1d" stop-opacity="1"></stop><stop offset="80%" stop-color="#1d1d1d" stop-opacity="1"></stop></linearGradient></defs><defs><linearGradient id="grad2_0" x1="0%" y1="0%" x2="66.7%" y2="100%"><stop offset="20%" stop-color="#1d1d1d" stop-opacity="1"></stop><stop offset="80%" stop-color="#1d1d1d" stop-opacity="1"></stop></linearGradient></defs><g transform="translate(900, 0)"><path d="M0 405.6C-32 389.6 -63.9 373.7 -97.6 364.2C-131.2 354.6 -166.6 351.6 -193 334.3C-219.4 317 -236.8 285.5 -262.3 262.3C-287.9 239.2 -321.7 224.3 -345.5 199.5C-369.4 174.7 -383.4 139.9 -391.8 105C-400.2 70.1 -402.9 35 -405.6 0L0 0Z" fill="#e47900"></path></g><g transform="translate(0, 600)"><path d="M0 -405.6C33.9 -401.5 67.8 -397.4 105 -391.8C142.2 -386.2 182.7 -379 200.5 -347.3C218.3 -315.6 213.2 -259.4 229.1 -229.1C245 -198.8 281.7 -194.5 305.7 -176.5C329.7 -158.5 340.9 -126.9 355.5 -95.2C370 -63.6 387.8 -31.8 405.6 0L0 0Z" fill="#e47900"></path></g></svg>