<svg id="visual" viewBox="0 0 900 600" width="900" height="600" xmlns="http://www.w3.org/2000/svg" xmlns:xlink="http://www.w3.org/1999/xlink" version="1.1"><path d="M800 600L818 400L773 200L818 0L900 0L900 200L900 400L900 600Z" fill="#e47900"></path><path d="M737 600L764 400L728 200L755 0L819 0L774 200L819 400L801 600Z" fill="#a25b19"></path><path d="M674 600L719 400L683 200L692 0L756 0L729 200L765 400L738 600Z" fill="#643e1e"></path><path d="M620 600L683 400L629 200L638 0L693 0L684 200L720 400L675 600Z" fill="#29221e"></path><path d="M494 600L431 400L476 200L395 0L639 0L630 200L684 400L621 600Z" fill="#1d1d1d"></path><path d="M404 600L359 400L404 200L314 0L396 0L477 200L432 400L495 600Z" fill="#29221e"></path><path d="M188 600L143 400L197 200L134 0L315 0L405 200L360 400L405 600Z" fill="#643e1e"></path><path d="M134 600L89 400L143 200L89 0L135 0L198 200L144 400L189 600Z" fill="#a25b19"></path><path d="M0 600L0 400L0 200L0 0L90 0L144 200L90 400L135 600Z" fill="#e47900"></path></svg>