<svg id="visual" viewBox="0 0 900 600" width="900" height="600" xmlns="http://www.w3.org/2000/svg" xmlns:xlink="http://www.w3.org/1999/xlink" version="1.1"><path d="M737 600L494 545L746 491L683 436L764 382L566 327L674 273L791 218L593 164L557 109L611 55L674 0L900 0L900 55L900 109L900 164L900 218L900 273L900 327L900 382L900 436L900 491L900 545L900 600Z" fill="#e47900"></path><path d="M395 600L278 545L395 491L395 436L458 382L440 327L440 273L449 218L350 164L377 109L422 55L413 0L675 0L612 55L558 109L594 164L792 218L675 273L567 327L765 382L684 436L747 491L495 545L738 600Z" fill="#643e1e"></path><path d="M242 600L152 545L161 491L269 436L251 382L260 327L296 273L305 218L134 164L287 109L233 55L161 0L414 0L423 55L378 109L351 164L450 218L441 273L441 327L459 382L396 436L396 491L279 545L396 600Z" fill="#1d1d1d"></path><path d="M125 600L80 545L89 491L125 436L98 382L188 327L179 273L179 218L71 164L143 109L152 55L89 0L162 0L234 55L288 109L135 164L306 218L297 273L261 327L252 382L270 436L162 491L153 545L243 600Z" fill="#643e1e"></path><path d="M0 600L0 545L0 491L0 436L0 382L0 327L0 273L0 218L0 164L0 109L0 55L0 0L90 0L153 55L144 109L72 164L180 218L180 273L189 327L99 382L126 436L90 491L81 545L126 600Z" fill="#e47900"></path></svg>