<svg id="visual" viewBox="0 0 900 600" width="900" height="600" xmlns="http://www.w3.org/2000/svg" xmlns:xlink="http://www.w3.org/1999/xlink" version="1.1"><path d="M0 73L13.7 70C27.3 67 54.7 61 82 64C109.3 67 136.7 79 163.8 86C191 93 218 95 245.2 102C272.3 109 299.7 121 327 124C354.3 127 381.7 121 409 110C436.3 99 463.7 83 491 79C518.3 75 545.7 83 573 85C600.3 87 627.7 83 654.8 93C682 103 709 127 736.2 125C763.3 123 790.7 95 818 84C845.3 73 872.7 79 886.3 82L900 85L900 0L886.3 0C872.7 0 845.3 0 818 0C790.7 0 763.3 0 736.2 0C709 0 682 0 654.8 0C627.7 0 600.3 0 573 0C545.7 0 518.3 0 491 0C463.7 0 436.3 0 409 0C381.7 0 354.3 0 327 0C299.7 0 272.3 0 245.2 0C218 0 191 0 163.8 0C136.7 0 109.3 0 82 0C54.7 0 27.3 0 13.7 0L0 0Z" fill="#ffa859"></path><path d="M0 127L13.7 128C27.3 129 54.7 131 82 137C109.3 143 136.7 153 163.8 163C191 173 218 183 245.2 187C272.3 191 299.7 189 327 190C354.3 191 381.7 195 409 191C436.3 187 463.7 175 491 165C518.3 155 545.7 147 573 144C600.3 141 627.7 143 654.8 160C682 177 709 209 736.2 208C763.3 207 790.7 173 818 157C845.3 141 872.7 143 886.3 144L900 145L900 83L886.3 80C872.7 77 845.3 71 818 82C790.7 93 763.3 121 736.2 123C709 125 682 101 654.8 91C627.7 81 600.3 85 573 83C545.7 81 518.3 73 491 77C463.7 81 436.3 97 409 108C381.7 119 354.3 125 327 122C299.7 119 272.3 107 245.2 100C218 93 191 91 163.8 84C136.7 77 109.3 65 82 62C54.7 59 27.3 65 13.7 68L0 71Z" fill="#ff9335"></path><path d="M0 319L13.7 310C27.3 301 54.7 283 82 290C109.3 297 136.7 329 163.8 335C191 341 218 321 245.2 326C272.3 331 299.7 361 327 374C354.3 387 381.7 383 409 375C436.3 367 463.7 355 491 350C518.3 345 545.7 347 573 343C600.3 339 627.7 329 654.8 329C682 329 709 339 736.2 353C763.3 367 790.7 385 818 387C845.3 389 872.7 375 886.3 368L900 361L900 143L886.3 142C872.7 141 845.3 139 818 155C790.7 171 763.3 205 736.2 206C709 207 682 175 654.8 158C627.7 141 600.3 139 573 142C545.7 145 518.3 153 491 163C463.7 173 436.3 185 409 189C381.7 193 354.3 189 327 188C299.7 187 272.3 189 245.2 185C218 181 191 171 163.8 161C136.7 151 109.3 141 82 135C54.7 129 27.3 127 13.7 126L0 125Z" fill="#ff7c00"></path><path d="M0 439L13.7 419C27.3 399 54.7 359 82 366C109.3 373 136.7 427 163.8 440C191 453 218 425 245.2 430C272.3 435 299.7 473 327 487C354.3 501 381.7 491 409 478C436.3 465 463.7 449 491 446C518.3 443 545.7 453 573 450C600.3 447 627.7 431 654.8 420C682 409 709 403 736.2 409C763.3 415 790.7 433 818 441C845.3 449 872.7 447 886.3 446L900 445L900 359L886.3 366C872.7 373 845.3 387 818 385C790.7 383 763.3 365 736.2 351C709 337 682 327 654.8 327C627.7 327 600.3 337 573 341C545.7 345 518.3 343 491 348C463.7 353 436.3 365 409 373C381.7 381 354.3 385 327 372C299.7 359 272.3 329 245.2 324C218 319 191 339 163.8 333C136.7 327 109.3 295 82 288C54.7 281 27.3 299 13.7 308L0 317Z" fill="#dc6b04"></path><path d="M0 601L13.7 601C27.3 601 54.7 601 82 601C109.3 601 136.7 601 163.8 601C191 601 218 601 245.2 601C272.3 601 299.7 601 327 601C354.3 601 381.7 601 409 601C436.3 601 463.7 601 491 601C518.3 601 545.7 601 573 601C600.3 601 627.7 601 654.8 601C682 601 709 601 736.2 601C763.3 601 790.7 601 818 601C845.3 601 872.7 601 886.3 601L900 601L900 443L886.3 444C872.7 445 845.3 447 818 439C790.7 431 763.3 413 736.2 407C709 401 682 407 654.8 418C627.7 429 600.3 445 573 448C545.7 451 518.3 441 491 444C463.7 447 436.3 463 409 476C381.7 489 354.3 499 327 485C299.7 471 272.3 433 245.2 428C218 423 191 451 163.8 438C136.7 425 109.3 371 82 364C54.7 357 27.3 397 13.7 417L0 437Z" fill="#ba5b06"></path></svg>