<svg id="visual" viewBox="0 0 900 600" width="900" height="600" xmlns="http://www.w3.org/2000/svg" xmlns:xlink="http://www.w3.org/1999/xlink" version="1.1"><path d="M692 600L638 400L755 200L701 0L900 0L900 200L900 400L900 600Z" fill="#e47900"></path><path d="M539 600L512 400L593 200L539 0L702 0L756 200L639 400L693 600Z" fill="#99561a"></path><path d="M476 600L458 400L485 200L458 0L540 0L594 200L513 400L540 600Z" fill="#53361f"></path><path d="M404 600L395 400L440 200L386 0L459 0L486 200L459 400L477 600Z" fill="#1d1d1d"></path><path d="M332 600L314 400L386 200L332 0L387 0L441 200L396 400L405 600Z" fill="#1d1d1d"></path><path d="M260 600L260 400L314 200L278 0L333 0L387 200L315 400L333 600Z" fill="#53361f"></path><path d="M80 600L107 400L80 200L80 0L279 0L315 200L261 400L261 600Z" fill="#99561a"></path><path d="M0 600L0 400L0 200L0 0L81 0L81 200L108 400L81 600Z" fill="#e47900"></path></svg>