<svg width="132.73445mm" height="96.139854mm" viewBox="0 0 132.73445 96.139854" xmlns="http://www.w3.org/2000/svg">
    <path d="m 13722.245,-1173.5092 -476.494,4.9668 2.009,345.77776 464.647,-6.4104 z m -231.875,24.9858 188.327,148.73296 -184.431,138.5734 -208.93,-129.7281 z" fill="#009638" transform="translate(-73.16301,-51.594501) matrix(0.26458333,0,0,0.26458333,-3428.0809,363.60602)"/>
    <path d="m 13494.266,-861.21704 177.604,-138.5152 -181.5,-138.87046 -196.436,150.36076 z m -6.42,-222.04356 c 10.524,0.2166 21.237,3.2074 31.519,10.1694 41.128,27.8478 53.246,68.8659 26.687,106.46016 -26.559,37.5947 -95.664,42.6419 -112.747,26.5135 -17.084,-16.1286 -41.131,-38.638 -18.31,-102.45586 11.408,-17.013 41.28,-41.3371 72.851,-40.6872 z" fill="#f6d800" transform="translate(-73.16301,-51.594501) matrix(0.26458333,0,0,0.26458333,-3428.0809,363.60602)"/>
    <path d="m 13486.124,-1076.3432 c -27.242,0.2927 -53.17,17.0476 -64.74,36.9184 -20.778,58.10836 1.117,78.60516 16.673,93.29076 15.554,14.6857 78.476,10.0916 102.659,-24.1397 24.184,-34.23096 19.597,-69.65236 -17.852,-95.00866 -11.701,-7.924 -24.357,-11.1939 -36.74,-11.0608 z" fill="#003eba" transform="translate(-73.16301,-51.594501) matrix(0.26458333,0,0,0.26458333,-3428.0809,363.60602)"/>
    <path d="m 13243.517,-818.67774 c -5.63,-3.381 -6.182,-8.9736 -8.872,-89.627 -1.315,-39.3637 0.355,-99.91876 0.07,-129.34286 -0.835,-87.4889 -3.125,-136.0899 -0.293,-138.1564 1.386,-1.0114 7.816,-1.3198 14.292,-0.685 37.464,3.6721 183.78,3.6964 321.785,0.053 143.267,-3.782 152.599,-3.7754 158.358,0.1124 6.952,4.6923 7.463,6.6942 2.906,11.3888 -2.614,2.6912 -3.533,32.5822 -4.914,159.6906 -1.81,166.53296 -1.868,181.85406 -13.067,181.85406 -2.531,0 -6.382,-2.8031 -8.561,-6.2296 -3.588,-5.6394 -3.812,-27.8373 -2.373,-95.225 2.564,-120.13366 5.888,-219.39296 7.642,-228.14716 l 1.627,-8.1408 -57.449,1.5319 c -151.383,4.0376 -278.284,5.4153 -285.28,5.1995 -37.895,-1.169 -68.114,-0.1743 -111.009,-0.4884 -6.249,-1.3011 -6.695,-0.941 -5.349,4.3095 3.922,15.2825 2.421,147.3186 5.379,237.42376 1.423,43.3668 2.774,79.0673 3.001,79.334 0.228,0.2669 13.093,-0.527 28.591,-1.7639 59.597,-9.9172 219.373,-0.3791 279.008,-3.9777 102.893,-7.7904 108.852,-2.5136 124.229,3.7393 8.51,3.4603 10.828,9.7358 5.17,13.9987 -3.12,2.3506 -12.799,3.2945 -33.937,3.3104 -33.285,0.027 -131.226,2.9212 -335.695,0.05 -22.029,-0.3095 -72.335,6.0832 -85.265,-0.2098 z m 250.036,-38.7845 c -0.765,-1.276 -3.731,-2.3201 -6.594,-2.3201 -5.191,0 -76.002,-39.9477 -105.462,-59.4953 -8.563,-5.6829 -25.964,-16.1059 -38.669,-23.1624 -12.703,-7.0566 -30.594,-18.6392 -39.752,-25.7392 -9.164,-7.1001 -18.517,-12.909 -20.789,-12.909 -12.738,0 2.288,-18.6584 31.214,-38.76776 21.52,-14.9578 163.08,-123.7385 166.244,-127.7492 6.037,-7.6454 18.698,-2.551 53.901,21.6912 93.554,64.4206 149.641,114.017 146.716,129.73226 -0.428,2.2966 -5.647,6.9053 -11.596,10.2411 -5.949,3.336 -19.181,12.6924 -29.406,20.792 -10.222,8.0999 -28.124,21.4492 -39.779,29.6654 -11.657,8.2161 -32.318,24.8554 -45.918,36.9762 -35.63,31.7564 -56.95,46.3142 -60.11,41.0448 z m 34.207,-40.2111 c 38.639,-37.1671 56.875,-51.4279 102.015,-79.776 l 34.768,-21.835 -7.756,-6.87676 c -26.161,-23.1942 -127.499,-102.13 -165.396,-128.8306 -2.365,-1.6656 -7.887,2.2144 -20.728,14.5568 -30.501,29.3165 -130.133,105.9303 -170.372,131.01056 -3.558,2.2181 -1.909,3.8653 11.702,11.7089 8.712,5.0199 26.453,14.5327 39.421,21.1396 12.972,6.6067 28.018,14.9017 33.443,18.4335 5.422,3.5316 25.037,14.9272 43.59,25.3231 34.557,19.367 63.99,39.3541 63.99,43.4551 0,4.9286 4.599,1.2462 35.323,-28.3092 z m -75.52,-23.4992 c -25.213,-7.3656 -43.152,-23.8771 -51.913,-47.785 -6.645,-18.1349 -5.321,-46.38356 3.077,-65.50536 7.885,-17.9658 27.444,-39.5153 42.957,-47.3347 15.342,-7.7342 35.579,-8.7314 49.61,-2.4448 5.18,2.3211 13.656,4.7696 18.839,5.441 29.055,3.7661 51.98,31.8055 54.716,66.9236 1.779,22.85526 -3.561,37.14256 -21.126,56.48716 -26.341,29.0121 -65.852,43.0715 -96.16,34.2181 z m 49.655,-25.3123 c 19.491,-9.1259 19.98,-9.9839 12.996,-22.8535 -9.218,-16.9967 -23.328,-32.21626 -40.8,-44.00966 -16.566,-11.181 -46.438,-24.5586 -49.908,-22.3496 -3.588,2.2863 -9.845,25.2125 -9.845,36.08536 0,25.2702 14.393,47.6115 35.915,55.7501 13.642,5.1581 37.624,3.9402 51.642,-2.6227 z m 44.585,-40.4181 c 2.656,-5.6507 4.825,-14.80116 4.825,-20.33456 0,-20.4593 -17.695,-53.9128 -28.519,-53.9128 -2.548,0 -8.685,-2.1308 -13.642,-4.7351 -16.927,-8.8971 -28.985,-10.7194 -43.053,-6.5064 -11.873,3.5561 -32.522,18.5159 -32.522,23.5612 0,1.2305 2.458,2.2371 5.46,2.2371 11.08,0 29.734,7.5999 46.636,19.0003 19.024,12.8318 31.316,25.6561 42.427,44.26066 8.249,13.813 10.419,13.3918 18.388,-3.5704 z" fill="#030303" transform="translate(-73.16301,-51.594501) matrix(0.26458333,0,0,0.26458333,-3428.0809,363.60602)"/>
</svg>
